<?xml version="1.0" encoding="iso-8859-1"?>
<!-- Uploaded to: SVG Repo, www.svgrepo.com, Generator: SVG Repo Mixer Tools -->
<svg height="800px" width="800px" version="1.1" id="Layer_1" xmlns="http://www.w3.org/2000/svg" xmlns:xlink="http://www.w3.org/1999/xlink" 
	 viewBox="0 0 511.999 511.999" xml:space="preserve">
<g>
	<path style="fill:#4D3332;" d="M256.531,0L256.531,0c-82.327,0-149.067,66.739-149.067,149.067v96.501h298.134v-96.501
		C405.597,66.739,338.858,0,256.531,0z"/>
	<path style="fill:#4D3332;" d="M107.464,245.568v88.34c0,49.263,39.936,89.199,89.199,89.199h119.734
		c49.263,0,89.199-39.936,89.199-89.199v-88.34H107.464z"/>
</g>
<g>
	<path style="fill:#E6AE95;" d="M131.738,183.453c-24.344,0-44.079,19.734-44.079,44.079l0,0c0,24.345,19.734,44.079,44.079,44.079
		h11.187v-88.158L131.738,183.453L131.738,183.453z"/>
	<path style="fill:#E6AE95;" d="M380.261,183.453c24.345,0,44.079,19.734,44.079,44.079l0,0c0,24.345-19.734,44.079-44.079,44.079
		h-11.187v-88.158L380.261,183.453L380.261,183.453z"/>
</g>
<path style="fill:#FFC1A6;" d="M356.301,455.387c-39.462,0-62.101-12.03-62.101-12.03V321.419H217.8v121.937
	c0,0-22.639,12.03-62.101,12.03s-68.039,25.476-68.039,56.613h336.68C424.34,480.863,395.764,455.387,356.301,455.387z"/>
<path style="opacity:0.1;enable-background:new    ;" d="M217.8,403.187c12.217,3.143,25.016,4.816,38.2,4.816
	s25.983-1.673,38.2-4.816v-81.769H217.8V403.187z"/>
<path style="fill:#FFC1A6;" d="M256.53,63.339c0,0-22.449,59.442-120.654,59.445c-4.349,12.806-6.716,26.528-6.716,40.805v91.038
	c0,70.051,56.787,126.839,126.839,126.839l0,0c70.051,0,126.839-56.787,126.839-126.839v-91.038c0-14.28-2.365-28.007-6.717-40.816
	C278.826,122.339,256.53,63.339,256.53,63.339z"/>
<path style="fill:#B9E578;" d="M255.999,354.928c55.308,0,100.301-44.995,100.301-100.301V152.974c0-11.08-1.81-21.744-5.143-31.717
	c-76.238-9.269-94.629-57.919-94.629-57.919s-18.564,49.127-95.735,58.057c-3.303,9.934-5.097,20.551-5.097,31.579v101.653
	C155.698,309.933,200.693,354.928,255.999,354.928z"/>
<g>
	<path style="fill:#4D3332;" d="M255.999,298.019c-18.37,0-34.633-4.731-43.503-12.655c-3.279-2.93-3.562-7.962-0.634-11.241
		c2.93-3.279,7.962-3.562,11.241-0.633c4.796,4.284,16.827,8.607,32.895,8.607c16.07,0,28.101-4.324,32.896-8.607
		c3.278-2.929,8.311-2.647,11.241,0.633c2.93,3.279,2.646,8.312-0.633,11.241C290.635,293.288,274.371,298.019,255.999,298.019z"/>
	<path style="fill:#4D3332;" d="M208.62,223.714c-11.703,0-22.182-3.187-28.031-8.524c-3.248-2.964-3.477-7.999-0.514-11.248
		c2.964-3.248,7.999-3.477,11.247-0.514c2.302,2.101,8.697,4.363,17.297,4.363c8.6,0,14.995-2.262,17.297-4.363
		c3.247-2.965,8.282-2.734,11.248,0.513c2.964,3.247,2.734,8.283-0.513,11.247C230.803,220.526,220.324,223.714,208.62,223.714z"/>
	<path style="fill:#4D3332;" d="M176.763,181.255c-2.606,0-5.16-1.278-6.684-3.627c-2.394-3.688-1.346-8.618,2.343-11.013
		c7.453-4.839,20.986-7.728,36.2-7.728c15.212,0,28.744,2.888,36.198,7.728c3.688,2.394,4.736,7.324,2.344,11.012
		c-2.395,3.689-7.324,4.737-11.013,2.343c-3.957-2.568-14.003-5.16-27.529-5.16c-13.527,0-23.574,2.592-27.53,5.16
		C179.752,180.839,178.249,181.255,176.763,181.255z"/>
	<path style="fill:#4D3332;" d="M303.379,223.714c-11.704,0-22.183-3.187-28.032-8.525c-3.248-2.964-3.477-7.999-0.513-11.247
		c2.964-3.248,8.001-3.477,11.248-0.513c2.302,2.101,8.697,4.363,17.297,4.363s14.995-2.261,17.297-4.363
		c3.246-2.964,8.283-2.734,11.247,0.514c2.964,3.248,2.734,8.283-0.514,11.248C325.562,220.527,315.083,223.714,303.379,223.714z"/>
	<path style="fill:#4D3332;" d="M335.236,181.255c-1.486,0-2.988-0.415-4.328-1.284c-3.956-2.569-14.003-5.16-27.53-5.16
		c-13.526,0-23.573,2.591-27.529,5.16c-3.687,2.394-8.618,1.346-11.012-2.343c-2.394-3.688-1.346-8.618,2.343-11.013
		c7.453-4.838,20.986-7.728,36.198-7.728c15.213,0,28.747,2.889,36.2,7.728c3.688,2.394,4.736,7.324,2.343,11.013
		C340.396,179.977,337.843,181.255,335.236,181.255z"/>
</g>
</svg>