<?xml version="1.0" encoding="iso-8859-1"?>
<!-- Uploaded to: SVG Repo, www.svgrepo.com, Generator: SVG Repo Mixer Tools -->
<svg height="800px" width="800px" version="1.1" id="Layer_1" xmlns="http://www.w3.org/2000/svg" xmlns:xlink="http://www.w3.org/1999/xlink" 
	 viewBox="0 0 512.001 512.001" xml:space="preserve">
<path style="fill:#F1F2F2;" d="M49.243,152.394c0-23.012,31.481-44.588,70.314-44.588h2.505c103.517,0,163.812-26.054,195.737-47.25
	c9.462-6.282,17.521-8.777,22.386-13.401c5.518-5.245,14.145-6.963,22.037-2.923c52.043,26.644,78.785,65.013,84.101,108.161H49.243
	z"/>
<path style="fill:#D1D3D4;" d="M364.616,41.516c-7.892-4.04-20.003-2.966-25.52,2.279c-4.864,4.623-11.839,10.478-21.298,16.759
	c34.272,24.566,56.27,58.105,60.426,91.84h78.254C451.163,109.246,416.66,68.159,364.616,41.516z"/>
<path style="fill:#EDA21D;" d="M447.083,149.656H32.226c-4.29,0-7.768,3.478-7.768,7.768v46.326H454.85v-46.326
	C454.85,153.134,451.372,149.656,447.083,149.656z"/>
<path style="fill:#EA9000;" d="M479.014,149.656h-58.915c4.709,0,8.526,3.818,8.526,8.528v45.566h58.915v-45.566
	C487.542,153.473,483.724,149.656,479.014,149.656z"/>
<path style="fill:#F2BA43;" d="M379.745,472.94H122.956C55.05,472.94,0,417.89,0,349.984V219.269
	c0-9.434,7.648-17.081,17.081-17.081h468.541c9.434,0,17.081,7.648,17.081,17.081v130.715
	C502.702,417.89,447.652,472.94,379.745,472.94z"/>
<path style="fill:#EDA21D;" d="M493.251,202.188h-64.762c10.355,0,18.75,8.395,18.75,18.75V337.97
	c0,74.541-60.428,134.97-134.97,134.97h64.762c74.541,0,134.97-60.428,134.97-134.97V220.938
	C512,210.583,503.605,202.188,493.251,202.188z"/>
<path style="fill:#ED4850;" d="M399.565,368.424h-287.13c-3.911,0-7.082-3.171-7.082-7.082v-84.64c0-3.911,3.171-7.082,7.082-7.082
	h287.13c3.911,0,7.082,3.171,7.082,7.082v84.64C406.648,365.254,403.477,368.424,399.565,368.424z"/>
<path style="fill:#E0273D;" d="M369.502,347.485H142.498c-2.63,0-4.763-2.133-4.763-4.763v-47.4c0-2.63,2.133-4.763,4.763-4.763
	h227.004c2.63,0,4.763,2.133,4.763,4.763v47.4C374.265,345.352,372.132,347.485,369.502,347.485z"/>
</svg>